<?xml version="1.0" encoding="utf-8"?>
<!-- Generator: Adobe Illustrator 17.0.0, SVG Export Plug-In . SVG Version: 6.00 Build 0)  -->
<!DOCTYPE svg PUBLIC "-//W3C//DTD SVG 1.1//EN" "http://www.w3.org/Graphics/SVG/1.1/DTD/svg11.dtd">
<svg version="1.1" xmlns="http://www.w3.org/2000/svg" xmlns:xlink="http://www.w3.org/1999/xlink" x="0px" y="0px" width="512px"
	 height="512px" viewBox="0 0 512 512" enable-background="new 0 0 512 512" xml:space="preserve">
<g id="Layer_3">
	<circle fill="#FEE600" cx="256" cy="256" r="254.5"/>
</g>
<g id="Layer_2">
	<g id="Capa_1">
		<g>
			<path fill="#505050" d="M309.813,256.373h-34.941c-1.781-6.844-7.138-12.201-13.982-13.982v-49.617
				c0-2.705-2.192-4.892-4.892-4.892c-2.701,0-4.892,2.187-4.892,4.892v49.617c-8.415,2.187-14.677,9.78-14.677,18.874
				c0,10.792,8.777,19.569,19.569,19.569c9.09,0,16.688-6.262,18.874-14.677h34.941c2.701,0,4.892-2.187,4.892-4.892
				C314.705,258.56,312.518,256.373,309.813,256.373z M255.998,271.05c-5.396,0-9.785-4.388-9.785-9.785
				c0-5.396,4.388-9.785,9.785-9.785c5.396,0,9.785,4.388,9.785,9.785C265.782,266.661,261.394,271.05,255.998,271.05z"/>
			<path fill="#505050" d="M359.283,161.517l20.039,20.039c0.92,0.92,2.162,1.433,3.459,1.433s2.544-0.514,3.459-1.433
				c15.494-15.489,15.494-40.699,0-56.188s-40.699-15.489-56.188,0c-0.92,0.92-1.433,2.157-1.433,3.459
				c0,1.301,0.514,2.544,1.433,3.459l22.314,22.314l-8.312,8.312c-23.385-20.958-54.25-33.737-88.051-33.737
				s-64.666,12.779-88.051,33.737l-8.317-8.312l22.314-22.314c0.92-0.92,1.433-2.158,1.433-3.459c0-1.301-0.514-2.544-1.433-3.459
				c-15.489-15.489-40.694-15.489-56.188,0s-15.494,40.699,0,56.188c0.92,0.92,2.162,1.433,3.459,1.433
				c1.296,0,2.544-0.514,3.459-1.433l20.039-20.039l8.199,8.199c-22.891,23.762-37.01,56.031-37.01,91.549
				c0,48.424,26.208,90.82,65.17,113.819l-14.814,14.814c-1.913,1.913-1.913,5.005,0,6.918c0.954,0.954,2.206,1.433,3.459,1.433
				c1.252,0,2.505-0.479,3.459-1.433l16.878-16.878c17.505,8.581,37.167,13.419,57.939,13.419s40.435-4.838,57.939-13.419
				l16.878,16.878c0.954,0.954,2.206,1.433,3.459,1.433c1.252,0,2.505-0.479,3.459-1.433c1.913-1.913,1.913-5.005,0-6.918
				l-14.814-14.814c38.962-22.999,65.17-65.395,65.17-113.819c0-35.518-14.119-67.787-37.01-91.549L359.283,161.517z
				 M379.317,132.285c10.499,10.499,11.556,26.917,3.175,38.615l-41.785-41.79C352.4,120.73,368.813,121.782,379.317,132.285z
				 M129.503,170.895c-8.38-11.693-7.324-28.111,3.175-38.61c10.499-10.499,26.917-11.551,38.61-3.175L129.503,170.895z
				 M255.998,383.572c-67.44,0-122.307-54.867-122.307-122.307s54.867-122.307,122.307-122.307s122.307,54.867,122.307,122.307
				S323.442,383.572,255.998,383.572z"/>
			<path fill="#505050" d="M255.998,162.828c2.701,0,4.892-2.187,4.892-4.892v-4.892c0-2.705-2.192-4.892-4.892-4.892
				c-2.701,0-4.892,2.187-4.892,4.892v4.892C251.105,160.636,253.297,162.828,255.998,162.828z"/>
			<path fill="#505050" d="M255.998,358.519c-2.701,0-4.892,2.187-4.892,4.892v4.892c0,2.705,2.192,4.892,4.892,4.892
				c2.701,0,4.892-2.187,4.892-4.892v-4.892C260.89,360.706,258.703,358.519,255.998,358.519z"/>
			<path fill="#505050" d="M358.735,265.566h4.892c2.701,0,4.892-2.187,4.892-4.892s-2.192-4.892-4.892-4.892h-4.892
				c-2.701,0-4.892,2.187-4.892,4.892S356.035,265.566,358.735,265.566z"/>
			<path fill="#505050" d="M153.26,255.781h-4.892c-2.701,0-4.892,2.187-4.892,4.892s2.192,4.892,4.892,4.892h4.892
				c2.701,0,4.892-2.187,4.892-4.892S155.965,255.781,153.26,255.781z"/>
			<path fill="#505050" d="M328.648,181.105l-3.459,3.459c-1.913,1.913-1.913,5.005,0,6.918c0.954,0.954,2.206,1.433,3.459,1.433
				c1.252,0,2.505-0.479,3.459-1.433l3.459-3.459c1.913-1.913,1.913-5.005,0-6.918C333.653,179.193,330.556,179.193,328.648,181.105
				z"/>
			<path fill="#505050" d="M179.893,329.86l-3.459,3.459c-1.913,1.913-1.913,5.005,0,6.918c0.954,0.954,2.206,1.433,3.459,1.433
				s2.505-0.479,3.459-1.433l3.459-3.459c1.913-1.913,1.913-5.005,0-6.918C184.898,327.947,181.806,327.952,179.893,329.86z"/>
			<path fill="#505050" d="M332.107,329.86c-1.913-1.913-5.005-1.913-6.918,0c-1.913,1.913-1.913,5.005,0,6.918l3.459,3.459
				c0.954,0.954,2.206,1.433,3.459,1.433c1.252,0,2.505-0.479,3.459-1.433c1.913-1.913,1.913-5.005,0-6.918L332.107,329.86z"/>
			<path fill="#505050" d="M183.352,181.105c-1.913-1.913-5.005-1.913-6.918,0c-1.913,1.913-1.913,5.005,0,6.918l3.459,3.459
				c0.954,0.954,2.206,1.433,3.459,1.433s2.505-0.479,3.459-1.433c1.913-1.913,1.913-5.005,0-6.918L183.352,181.105z"/>
		</g>
	</g>
</g>
</svg>
