<?xml version="1.0" encoding="utf-8"?>
<!-- Generator: Adobe Illustrator 17.0.0, SVG Export Plug-In . SVG Version: 6.00 Build 0)  -->
<!DOCTYPE svg PUBLIC "-//W3C//DTD SVG 1.1//EN" "http://www.w3.org/Graphics/SVG/1.1/DTD/svg11.dtd">
<svg version="1.1" xmlns="http://www.w3.org/2000/svg" xmlns:xlink="http://www.w3.org/1999/xlink" x="0px" y="0px" width="512px"
	 height="512px" viewBox="0 0 512 512" enable-background="new 0 0 512 512" xml:space="preserve">
<g id="Layer_2">
	<circle fill="#FEE600" cx="256" cy="256" r="256"/>
</g>
<g id="Layer_1">
	<path fill="#505050" d="M348.896,114.83h-30.512c-2.825-28.818-27.121-50.853-56.504-50.853H250.58
		c-28.818,0-53.113,22.036-56.504,50.853h-31.077c-26.558,0-48.028,21.47-48.028,48.594c0,17.517,9.607,33.337,24.296,42.378
		l15.257,9.041l11.301,92.666v78.54c0,9.607,7.344,16.951,16.951,16.951h146.91c9.607,0,16.951-7.344,16.951-16.951v-78.54
		l10.735-92.666l15.257-9.041c23.167-13.56,31.643-42.943,18.08-66.111C382.233,124.437,366.413,114.83,348.896,114.83z
		 M335.336,323.895H177.125v-11.301h158.211V323.895z M329.686,391.699h-146.91c-3.391,0-5.65-2.26-5.65-5.65v-50.853h158.211
		v50.853C335.336,389.44,333.076,391.699,329.686,391.699z M367.544,195.63l-20.342,11.866l-11.301,93.797H176.559l-11.301-93.797
		l-20.342-11.866c-18.08-10.17-24.296-32.771-14.126-50.853c6.782-11.864,19.214-18.645,32.208-18.645h42.378v-5.65
		c0-24.861,20.342-45.203,45.203-45.203h11.301c24.861,0,45.203,20.342,45.203,45.203v5.65h41.812
		c20.342,0,37.293,16.951,37.293,37.293C386.189,176.985,378.845,188.851,367.544,195.63z"/>
	<path fill="#505050" d="M194.076,210.887h11.301v79.105h-11.301V210.887z"/>
	<path fill="#505050" d="M222.328,210.887h11.301v79.105h-11.301V210.887z"/>
	<path fill="#505050" d="M250.58,210.887h11.301v79.105H250.58V210.887z"/>
	<path fill="#505050" d="M278.832,210.887h11.301v79.105h-11.301V210.887z"/>
	<path fill="#505050" d="M307.084,210.887h11.301v79.105h-11.301V210.887z"/>
	<path fill="#505050" d="M329.686,137.432h-5.65v11.301h5.65c15.82,0,28.252,12.432,28.252,28.252h11.301
		C369.238,154.949,351.721,137.432,329.686,137.432z"/>
	<path fill="#505050" d="M256.23,86.578v11.301c15.82,0,28.252,12.432,28.252,28.252v5.65h11.301v-5.65
		C295.783,104.095,278.266,86.578,256.23,86.578z"/>
</g>
</svg>
