<?xml version="1.0" encoding="utf-8"?>
<!-- Generator: Adobe Illustrator 17.0.0, SVG Export Plug-In . SVG Version: 6.00 Build 0)  -->
<!DOCTYPE svg PUBLIC "-//W3C//DTD SVG 1.1//EN" "http://www.w3.org/Graphics/SVG/1.1/DTD/svg11.dtd">
<svg version="1.1" xmlns="http://www.w3.org/2000/svg" xmlns:xlink="http://www.w3.org/1999/xlink" x="0px" y="0px" width="512px"
	 height="512px" viewBox="0 0 512 512" enable-background="new 0 0 512 512" xml:space="preserve">
<g id="Layer_2">
	<circle fill="#FEE600" cx="256" cy="257.5" r="254.5"/>
</g>
<g id="Capa_1">
	<path fill="#505050" d="M404.507,380.62h-3.791c-7.45,0-13.511-6.061-13.511-13.51V141.744c0-0.423,0.175-10.363,15.406-10.363
		c17.737,0,25.41,51.556,25.41,77.855c0,31.614-8.422,60.681-10.002,65.85v92.023C418.017,374.558,411.957,380.62,404.507,380.62z
		 M397.327,279.381v87.729c0,1.868,1.52,3.388,3.389,3.388h3.791c1.867,0,3.389-1.518,3.389-3.388v-87.729H397.327z
		 M397.327,269.259h11.838c2.51-8.993,8.734-33.931,8.734-60.022c0-35.252-10.23-65.688-15.421-67.733
		c-3.131,0.019-4.649,0.641-5.15,0.999V269.259z M112.88,380.62c-5.137,0-9.916-1.738-12.784-4.648
		c-1.921-1.95-2.959-4.405-2.922-6.912l2.043-138.715c-8.869-4.818-15.014-14.147-15.235-24.846c-0.003-0.105-0.003-0.213,0-0.322
		c0,0,0,0,0-0.002c0-0.003,0-0.007,0-0.012c0-0.002,0-0.003,0-0.007c0-0.002,0-0.005,0-0.007c0-0.003,0-0.007,0-0.01
		c0-0.002,0-0.003,0-0.005c0-0.005,0-0.008,0-0.014c0,0,0,0,0-0.002l2.893-63.607c0.127-2.792,2.51-4.934,5.285-4.825
		c2.792,0.127,4.953,2.495,4.827,5.287l-2.65,58.316h5.65l1.334-58.66c0.064-2.794,2.412-5.034,5.174-4.945
		c2.794,0.062,5.009,2.38,4.945,5.174l-1.329,58.431h5.54l-1.329-58.431c-0.064-2.794,2.149-5.112,4.945-5.174
		c2.799-0.142,5.112,2.149,5.174,4.945l1.334,58.66h5.65l-2.652-58.315c-0.127-2.792,2.035-5.161,4.827-5.287
		c2.789-0.138,5.159,2.033,5.285,4.825l2.893,63.607c0,0.003,0,0.005,0,0.008l0,0c0.005,0.125,0.007,0.248,0.003,0.373
		c-0.221,10.699-6.367,20.026-15.235,24.846l2.043,138.715c0.037,2.505-1,4.96-2.922,6.912
		C122.797,378.882,118.017,380.62,112.88,380.62z M107.298,368.866c0.508,0.53,2.402,1.631,5.582,1.631
		c3.18,0,5.075-1.1,5.582-1.631l-1.989-135.043h-7.185L107.298,368.866z M94.929,210.413c2.379,7.669,9.574,13.29,17.951,13.29
		s15.571-5.621,17.951-13.29h-9.994c-0.007,0-0.013,0-0.024,0h-15.866c-0.01-0.002-0.017-0.002-0.025,0H94.929z M258.215,363.896
		c-62.365,0-113.103-50.738-113.103-113.105c0-62.365,50.738-113.103,113.103-113.103s113.103,50.738,113.103,113.103
		C371.319,313.158,320.581,363.896,258.215,363.896z M258.215,147.81c-56.784,0-102.981,46.197-102.981,102.981
		s46.197,102.983,102.981,102.983s102.981-46.199,102.981-102.983S315,147.81,258.215,147.81z M258.215,333.357
		c-45.525,0-82.564-37.038-82.564-82.564s37.038-82.564,82.564-82.564s82.563,37.038,82.563,82.564S303.741,333.357,258.215,333.357
		z M258.215,178.35c-39.945,0-72.442,32.498-72.442,72.442s32.498,72.442,72.442,72.442s72.441-32.498,72.441-72.441
		S298.159,178.35,258.215,178.35z"/>
</g>
</svg>
